HIERARCHY
ROOT Hips
{
  OFFSET 49.7188 96.4951 26.0484
  CHANNELS 6 Xposition Yposition Zposition Zrotation Xrotation Yrotation
  JOINT spine
  {
    OFFSET 0 8.13249 0.467659
    CHANNELS 3 Zrotation Xrotation Yrotation
    JOINT spine1
    {
      OFFSET 0 10.3498 0
      CHANNELS 3 Zrotation Xrotation Yrotation
      JOINT spine2
      {
        OFFSET 0 9.91699 0
        CHANNELS 3 Zrotation Xrotation Yrotation
        JOINT Neck
        {
          OFFSET 0 25.461 1.2139
          CHANNELS 3 Zrotation Xrotation Yrotation
          JOINT Head
          {
            OFFSET 0 7.69245 0
            CHANNELS 3 Zrotation Xrotation Yrotation
            End Site
            {
              OFFSET 0 18.62 -6.14063
            }
          }
        }
        JOINT RightShoulder
        {
          OFFSET -4.17575 10.7096 -0.581445
          CHANNELS 3 Zrotation Xrotation Yrotation
          JOINT RightArm
          {
            OFFSET 0 14.0466 0
            CHANNELS 3 Zrotation Xrotation Yrotation
            JOINT RightArmRoll
            {
              OFFSET 0 7.09099 0
              CHANNELS 3 Zrotation Xrotation Yrotation
              JOINT RightForeArm
              {
                OFFSET 0 20.6535 0
                CHANNELS 3 Zrotation Xrotation Yrotation
                JOINT RightForeArmRoll
                {
                  OFFSET 0 7.95719 0
                  CHANNELS 3 Zrotation Xrotation Yrotation
                  JOINT RightHand
                  {
                    OFFSET 0 15.9683 0
                    CHANNELS 3 Zrotation Xrotation Yrotation
                    End Site
                    {
                      OFFSET 0 0 0
                    }
                  }
                }
              }
            }
          }
        }
        JOINT LeftShoulder
        {
          OFFSET 4.17575 10.7096 -0.581445
          CHANNELS 3 Zrotation Xrotation Yrotation
          JOINT LeftArm
          {
            OFFSET 0 14.0466 0
            CHANNELS 3 Zrotation Xrotation Yrotation
            JOINT LeftArmRoll
            {
              OFFSET 0 7.09098 0
              CHANNELS 3 Zrotation Xrotation Yrotation
              JOINT LeftForeArm
              {
                OFFSET 0 20.6535 0
                CHANNELS 3 Zrotation Xrotation Yrotation
                JOINT LeftForeArmRoll
                {
                  OFFSET 0 7.95718 0
                  CHANNELS 3 Zrotation Xrotation Yrotation
                  JOINT LeftHand
                  {
                    OFFSET 0 15.9683 0
                    CHANNELS 3 Zrotation Xrotation Yrotation
                    End Site
                    {
                      OFFSET 0 0 0
                    }
                  }
                }
              }
            }
          }
        }
      }
    }
  }
  JOINT RightUpLeg
  {
    OFFSET -7.20834 -1.32182 -1.10884
    CHANNELS 3 Zrotation Xrotation Yrotation
    JOINT RightUpLegRoll
    {
      OFFSET 0 18.7238 0
      CHANNELS 3 Zrotation Xrotation Yrotation
      JOINT RightLeg
      {
        OFFSET 0 -23.1866 0
        CHANNELS 3 Zrotation Xrotation Yrotation
        JOINT RightLegRoll
        {
          OFFSET 0 23.2624 0
          CHANNELS 3 Zrotation Xrotation Yrotation
          JOINT RightFoot
          {
            OFFSET 0 19.3621 0
            CHANNELS 3 Zrotation Xrotation Yrotation
            JOINT RightToeBase
            {
              OFFSET 0 16.1857 0
              CHANNELS 3 Zrotation Xrotation Yrotation
              End Site
              {
                OFFSET 0.00686052 7.83863 -0.903522
              }
            }
          }
        }
      }
    }
  }
  JOINT LeftUpLeg
  {
    OFFSET 7.20834 -1.32182 -1.10884
    CHANNELS 3 Zrotation Xrotation Yrotation
    JOINT LeftUpLegRoll
    {
      OFFSET 0 18.7239 0
      CHANNELS 3 Zrotation Xrotation Yrotation
      JOINT LeftLeg
      {
        OFFSET 0 23.1865 0
        CHANNELS 3 Zrotation Xrotation Yrotation
        JOINT LeftLegRoll
        {
          OFFSET 0 23.4775 0
          CHANNELS 3 Zrotation Xrotation Yrotation
          JOINT LeftFoot
          {
            OFFSET 0 19.147 0
            CHANNELS 3 Zrotation Xrotation Yrotation
            JOINT LeftToeBase
            {
              OFFSET 0 16.1857 0
              CHANNELS 3 Zrotation Xrotation Yrotation
              End Site
              {
                OFFSET -0.0307459 7.83863 -0.903522
              }
            }
          }
        }
      }
    }
  }
}
MOTION
Frames: 6
Frame Time: 0.00208333
53.6179 95.8206 12.9928 -0.27372 -4.53751 0.386055 0.351675 -0.998052 0.222032 0.713359 2.012 0.414529 0.709095 3.65698 0.402764 -1.61057 15.4116 -5.59499 1.32107 4.33273 -6.04168 56.4033 -10.4596 -6.51463 115.97 18.4526 14.3704 -1.25866e-005 3.5977e-006 -7.76347e-006 9.25797 3.48036 -0.995346 -7.10614e-006 3.90483e-006 -3 8.02903 -4.95146 0.697678 -59.8833 -6.9051 4.32641 -113.147 17.6173 -6.17065 6.58779e-006 -1.1801e-006 3.94396e-006 -9.23994 0.0731518 0.92375 2.81423e-006 5.07482e-006 3.02241 -8.02901 -4.95145 -0.697674 174.604 0.816716 4.07599 180 7.01579e-015 179.071 176.633 12.1817 179.89 -3.40932e-006 7.52221e-007 0.0195711 -17.0875 69.706 20.9279 8.12569 25.2332 -3.48313 -176.298 -0.545067 -0.0335505 -1.07169e-005 -4.64205e-006 -0.954864 -1.31124 -13.2965 0.478297 7.14688e-008 7.61527e-007 -0.168098 19.6212 72.4603 -23.7275 -8.12834 25.2331 3.48426 
53.618 95.7927 12.9977 -0.27275 -4.53393 0.386417 0.351667 -0.997637 0.222267 0.712691 2.01253 0.414348 0.708425 3.65751 0.402601 -1.6113 15.4173 -5.59224 1.32125 4.32097 -6.03903 56.3957 -10.4615 -6.51585 115.983 18.4542 14.3694 -1.25866e-005 3.5977e-006 -7.76347e-006 9.25525 3.47484 -0.99483 -7.10614e-006 3.90483e-006 -3 8.02903 -4.95146 0.697678 -59.8853 -6.90964 4.32924 -113.147 17.6232 -6.15737 6.58779e-006 -1.1801e-006 3.94396e-006 -9.2457 0.0731506 0.923784 2.81423e-006 5.07482e-006 3.02241 -8.02901 -4.95145 -0.697674 174.604 0.821127 4.07636 180 7.01579e-015 179.071 176.633 12.1863 179.89 -3.40932e-006 7.52221e-007 0.0195715 -17.0898 69.7098 20.9294 8.12569 25.2332 -3.48313 -176.299 -0.541054 -0.0309715 -1.07169e-005 -4.64205e-006 -0.954871 -1.30927 -13.2954 0.478993 7.14688e-008 7.61527e-007 -0.168098 19.6165 72.4591 -23.7251 -8.12834 25.2331 3.48426 
53.6189 95.7968 12.9919 -0.271691 -4.53055 0.386904 0.351659 -0.997206 0.222505 0.711972 2.01308 0.414185 0.707704 3.65807 0.402457 -1.61158 15.4232 -5.58969 1.32098 4.30868 -6.03648 56.3883 -10.4635 -6.51717 115.996 18.4558 14.3683 -1.25866e-005 3.5977e-006 -7.76347e-006 9.25264 3.46918 -0.994307 -7.10614e-006 3.90483e-006 -3 8.02903 -4.95146 0.697678 -59.8872 -6.91415 4.33205 -113.146 17.629 -6.14377 6.58779e-006 -1.1801e-006 3.94396e-006 -9.25161 0.0731494 0.923788 2.81423e-006 5.07482e-006 3.02241 -8.02901 -4.95145 -0.697674 174.603 0.824873 4.07686 180 7.01579e-015 179.071 176.632 12.1903 179.89 -3.40932e-006 7.52221e-007 0.0195676 -17.0919 69.7134 20.9307 8.12569 25.2332 -3.48313 -176.3 -0.537594 -0.0281481 -1.07169e-005 -4.64205e-006 -0.954882 -1.30707 -13.2934 0.479774 7.14688e-008 7.61527e-007 -0.168098 19.6111 72.4574 -23.7221 -8.12834 25.2331 3.48426 
53.6149 95.8199 12.9951 -0.27057 -4.52731 0.38748 0.351651 -0.996764 0.222745 0.711217 2.01365 0.414036 0.706947 3.65864 0.402327 -1.61154 15.4292 -5.58729 1.32041 4.29602 -6.034 56.3809 -10.4656 -6.51856 116.009 18.4575 14.367 -1.25866e-005 3.5977e-006 -7.76347e-006 9.25012 3.46343 -0.993778 -7.10614e-006 3.90483e-006 -3 8.02903 -4.95146 0.697678 -59.8891 -6.91864 4.33484 -113.146 17.6348 -6.12996 6.58779e-006 -1.1801e-006 3.94396e-006 -9.25762 0.0731482 0.923769 2.81423e-006 5.07482e-006 3.02241 -8.02901 -4.95145 -0.697674 174.602 0.828153 4.07746 180 7.01579e-015 179.071 176.632 12.1938 179.89 -3.40932e-006 7.52221e-007 0.0195605 -17.0938 69.717 20.9318 8.12569 25.2332 -3.48313 -176.302 -0.53452 -0.0251537 -1.07169e-005 -4.64205e-006 -0.954895 -1.30469 -13.2909 0.480615 7.14688e-008 7.61527e-007 -0.168098 19.6051 72.4554 -23.7187 -8.12834 25.2331 3.48426 
53.6237 95.8101 12.9867 -0.269415 -4.52416 0.388106 0.351644 -0.996316 0.222986 0.710442 2.01423 0.413893 0.706169 3.65922 0.402205 -1.61131 15.4353 -5.58497 1.31965 4.28315 -6.03156 56.3736 -10.4678 -6.51999 116.021 18.4592 14.3656 -1.25866e-005 3.5977e-006 -7.76347e-006 9.24765 3.45763 -0.993246 -7.10614e-006 3.90483e-006 -3 8.02903 -4.95146 0.697678 -59.8909 -6.92312 4.33762 -113.146 17.6407 -6.11602 6.58779e-006 -1.1801e-006 3.94396e-006 -9.26368 0.0731469 0.923738 2.81423e-006 5.07482e-006 3.02241 -8.02901 -4.95145 -0.697674 174.601 0.831167 4.07811 180 7.01579e-015 179.071 176.631 12.1971 179.89 -3.40932e-006 7.52221e-007 0.0195517 -17.0957 69.7205 20.9329 8.12569 25.2332 -3.48313 -176.303 -0.531668 -0.0220616 -1.07169e-005 -4.64205e-006 -0.95491 -1.30222 -13.288 0.48149 7.14688e-008 7.61527e-007 -0.168098 19.5988 72.4533 -23.7151 -8.12834 25.2331 3.48426 
53.6186 95.8118 12.9887 -0.26825 -4.52102 0.388744 0.351637 -0.995866 0.223227 0.709661 2.01481 0.413753 0.705386 3.6598 0.402085 -1.61105 15.4415 -5.58266 1.31885 4.27022 -6.02913 56.3663 -10.47 -6.52143 116.034 18.4608 14.3642 -1.25866e-005 3.5977e-006 -7.76347e-006 9.24519 3.45181 -0.992713 -7.10614e-006 3.90483e-006 -3 8.02903 -4.95146 0.697678 -59.8928 -6.9276 4.34041 -113.146 17.6465 -6.10204 6.58779e-006 -1.1801e-006 3.94396e-006 -9.26976 0.0731456 0.923704 2.81423e-006 5.07482e-006 3.02241 -8.02901 -4.95145 -0.697674 174.6 0.834114 4.07878 180 7.01579e-015 179.071 176.631 12.2003 179.89 -3.40932e-006 7.52221e-007 0.0195424 -17.0976 69.7239 20.934 8.12569 25.2332 -3.48313 -176.305 -0.528871 -0.018945 -1.07169e-005 -4.64205e-006 -0.954924 -1.29973 -13.285 0.482374 7.14688e-008 7.61527e-007 -0.168098 19.5925 72.4511 -23.7115 -8.12834 25.2331 3.48426 
